<svg id="AL4rsVgJ0" viewBox="0 0 369.89473684210526 103.09258835515882" height="103.09258835515882" width="369.89473684210526" style="width: 369.895px; height: 103.093px; position: absolute; top: 50%; left: 50%; z-index: 0; cursor: pointer; overflow: visible; transform: translate(-50%, -50%) scale(0.640723);"><defs id="SvgjsDefs1415"></defs><g id="SvgjsG1416" featurekey="symbolFeature-0" transform="matrix(1.1018167734146118,0,0,1.1018167734146118,-9.038202896939938,-3.5445392475335553)" fill="#f25d9c"><g xmlns="http://www.w3.org/2000/svg"><path d="M8.203,42.885l44.208,53.898c0,0-11.808-53.9,5.148-93.566L8.203,42.885z"></path><path d="M54.326,32.822c0,0-6.759,30.048-0.702,55.786c0,0-2.12-29.068,31.49-66.616L54.326,32.822z"></path><path d="M55.752,93.512c0,0-0.625-21.529,12.094-41.182h23.951C91.797,52.33,71.204,63.594,55.752,93.512z"></path></g></g><g id="SvgjsG1417" featurekey="nameFeature-0" transform="matrix(2.2932143211364746,0,0,2.2932143211364746,111.96422374797304,-19.356738886183123)" fill="#590d82"><path d="M8.84 46.76 c-1.48 1.44 -2.12 1.48 -3.64 0.04 l-1.68 -1.44 c-0.48 -0.4 -0.72 -0.88 -0.72 -1.52 l0 -14.96 c0 -0.84 -0.28 -1.52 -1 -2 l-1.28 -0.88 c-0.52 -0.44 -0.68 -0.92 -0.28 -1.48 c0.72 -1.08 1.68 -1.92 2.76 -2.6 c0.72 -0.48 1.48 -0.12 2.12 0.36 c0.48 0.4 0.96 0.8 1.44 1.24 c0.24 0.2 0.44 0.24 0.72 0.04 l4.36 -2.72 c1 -0.64 1.76 -0.64 2.76 0.08 c0.88 0.64 1.76 1.28 2.68 1.88 c0.72 0.48 1.04 1.16 1.08 1.96 l0 7.8 c0 0.84 -0.4 1.52 -1.12 1.96 c-2.68 1.72 -5.32 3.48 -8.12 5.04 c-0.8 0.48 -0.88 0.92 -0.84 1.64 c0.04 0.6 0.2 1.04 0.68 1.4 c0.44 0.28 0.8 0.6 1.2 0.92 c0.64 0.48 0.76 1 0.32 1.68 c-0.36 0.64 -0.96 1.04 -1.44 1.56 z M8.2 26.4 l0 6.36 c0 1.68 0.48 2.4 2.04 3.04 c1.28 0.48 2.36 -0.2 2.4 -1.6 l0.04 -6.64 c0.16 -1.36 -0.44 -2.24 -1.56 -2.84 c-0.16 -0.08 -0.32 -0.16 -0.48 -0.28 c-0.72 -0.36 -1.32 -0.24 -1.88 0.36 c-0.4 0.44 -0.56 0.96 -0.56 1.6 z M5.2 42.6 c0 0.8 0.24 1.44 0.96 1.88 c0.52 0.32 1 0.72 1.48 1.12 c0.28 0.2 0.6 0.4 0.88 0 c0.28 -0.36 0.12 -0.68 -0.28 -0.96 l-1.48 -1.08 c-0.32 -0.24 -0.48 -0.6 -0.48 -1.04 c0.04 -2.56 0.04 -5.04 0 -15.48 c0 -0.52 -0.16 -0.96 -0.52 -1.28 c-0.68 -0.64 -1.4 -1.24 -2.12 -1.84 c-0.32 -0.24 -0.6 -0.16 -0.84 0.16 c-0.24 0.28 -0.08 0.52 0.16 0.72 l1.16 0.92 c0.8 0.64 1.12 1.32 1.12 2.36 c-0.04 4.84 0 9.68 -0.04 14.52 z M12.24 22.2 c-0.2 0.28 -0.12 0.52 0.12 0.76 c0.68 0.52 1.28 1.08 1.96 1.56 c0.4 0.28 0.56 0.6 0.56 1.08 l0 7.24 c0 0.4 0.04 0.76 0.52 0.76 s0.6 -0.32 0.56 -0.76 l0 -7.28 c0 -0.56 -0.08 -1.12 -0.48 -1.48 c-0.8 -0.72 -1.6 -1.36 -2.44 -2 c-0.28 -0.24 -0.6 -0.12 -0.8 0.12 z M22.2 35.8 c0 -2.68 0.04 -5.36 0 -8.08 c-0.04 -0.88 0.32 -1.56 1 -2 c2.52 -1.72 5.08 -3.4 7.64 -5.08 c0.72 -0.48 1.48 -0.4 2.16 0.12 l2.88 2.16 c0.52 0.36 0.76 0.88 0.76 1.52 l0 9.32 c0 0.52 0.2 0.84 0.6 1.08 c0.52 0.24 1 0.56 1.48 0.84 c0.56 0.32 0.68 0.76 0.28 1.28 c-0.76 0.96 -1.56 1.84 -2.48 2.68 c-0.6 0.52 -1.56 0.4 -2.32 -0.16 c-0.92 -0.68 -1.84 -1.36 -2.72 -2.08 c-0.24 -0.2 -0.4 -0.2 -0.64 0 l-2.32 2 c-0.96 0.84 -1.8 0.84 -2.84 0.04 l-2.64 -1.96 c-0.6 -0.4 -0.84 -0.96 -0.84 -1.68 z M28.08 24.36 c-0.68 0.32 -0.76 1 -0.76 1.64 c0.08 2.52 0.04 5.04 0.04 7.56 c0 0.4 0.08 0.8 0.4 1.12 c0.52 0.6 1.2 1 1.92 1.32 c0.2 0.12 0.44 0.04 0.6 -0.08 c0.72 -0.44 1.32 -1.04 1.32 -2 c0.04 -1.12 0 -2.24 0.04 -6.04 c0.16 -1.52 -0.6 -2.44 -1.72 -3.24 c-0.56 -0.44 -1.2 -0.6 -1.84 -0.28 z M31.32 22.24 c-0.28 0.28 -0.16 0.56 0.12 0.84 c0.44 0.36 0.84 0.76 1.32 1.12 c0.64 0.48 0.88 1.12 0.88 1.88 c0 2.28 -0.08 4.52 -0.08 6.8 c0 2.88 -0.36 2.96 2.28 4.8 c0.24 0.2 0.52 0.4 0.8 0.04 c0.24 -0.36 0.2 -0.68 -0.16 -0.96 l-1.24 -0.92 c-0.32 -0.28 -0.56 -0.6 -0.56 -1.08 c0.04 -1.48 0.04 -2.92 0.04 -8.76 c0 -0.96 -0.32 -1.84 -1.04 -2.48 c-0.48 -0.48 -1 -0.88 -1.52 -1.28 c-0.28 -0.24 -0.6 -0.28 -0.84 0 z M24.48 27.36 l-0.08 7.92 c0 0.4 0.16 0.8 0.4 1.16 c0.48 0.68 1.2 1.12 1.84 1.6 c0.28 0.2 0.6 0.08 0.8 -0.2 s0.08 -0.52 -0.2 -0.72 c-0.32 -0.24 -0.6 -0.56 -0.96 -0.76 c-0.64 -0.4 -0.8 -0.92 -0.8 -1.64 c0.08 -2.16 0.08 -4.36 0.08 -6.52 c0 -0.68 0 -1.36 0.56 -1.88 c0.16 -0.16 0.16 -0.4 0 -0.6 c-0.12 -0.2 -0.24 -0.28 -0.48 -0.28 c-0.16 0 -0.28 0.08 -0.4 0.24 c-0.48 0.44 -0.76 1 -0.76 1.68 z M54.68 23.36 c0.64 0.56 0.68 1 0.2 1.72 c-0.36 0.52 -0.88 0.88 -1.4 1.24 l-1 0.68 c-0.72 0.48 -1.36 0.48 -2 -0.12 c-0.6 -0.64 -1.28 -1.2 -1.8 -1.92 c-0.24 -0.32 -0.68 -0.64 -1.2 -0.52 c-0.48 0.08 -0.6 0.52 -0.68 0.92 c-0.2 0.76 -0.08 1.52 -0.08 2.28 c-0.04 0.68 0 1.36 0 5.68 c0 0.68 0.2 1.28 0.84 1.68 c0.4 0.24 0.8 0.56 1.2 0.88 c0.56 0.44 0.68 0.92 0.32 1.56 c-0.32 0.56 -0.84 0.96 -2.04 2.08 c-0.8 0.8 -1.72 0.88 -2.64 0.16 c-0.92 -0.76 -1.8 -1.56 -2.72 -2.36 c-0.32 -0.28 -0.44 -0.64 -0.4 -1.04 c0.12 -2.8 0.04 -5.6 0.04 -8.4 c0 -0.92 0.36 -1.64 1.12 -2.2 l6.92 -4.88 c0.68 -0.48 1.52 -0.44 2.12 0.08 c1 0.92 2.2 1.56 3.2 2.48 z M46.6 37.4 c0.24 -0.28 0.08 -0.52 -0.16 -0.72 l-1.12 -0.92 c-0.48 -0.32 -0.64 -0.8 -0.6 -1.36 c0.04 -2.32 0.04 -4.64 0.04 -6.96 c0.04 -0.4 -0.04 -0.76 -0.52 -0.76 s-0.56 0.36 -0.56 0.76 l-0.08 6.64 c-0.24 1.8 0.96 2.64 2.2 3.48 c0.28 0.2 0.6 0.16 0.8 -0.16 z M52.84 25.119999999999997 c0.28 -0.32 0.08 -0.56 -0.2 -0.8 l-1.92 -1.68 c-0.16 -0.12 -0.32 -0.24 -0.52 -0.2 c-0.28 0 -0.44 0.12 -0.52 0.32 c-0.12 0.24 -0.04 0.44 0.16 0.6 c0.68 0.6 1.4 1.24 2.12 1.8 c0.28 0.28 0.64 0.32 0.88 -0.04 z M60.519999999999996 40.16 l-0.48 -0.12 c-0.68 -0.36 -1.24 -0.92 -3.52 -2.48 c-0.56 -0.36 -0.84 -0.88 -0.84 -1.6 c0.04 -2.84 0.04 -5.72 0.04 -8.56 c0 -0.72 0.4 -1.24 0.92 -1.56 l8.12 -5.2 c0.76 -0.44 1.52 -0.4 2.24 0.12 l3 2.16 c0.68 0.44 0.96 1.16 0.96 1.92 c0.04 2.56 0.04 5.12 0.04 7.68 c0 0.96 -0.44 1.72 -1.28 2.24 l-7.84 5 c-0.44 0.28 -0.88 0.4 -1.36 0.4 z M61.04 26.16 c0 2.24 -0.04 4.48 -0.04 6.76 c0 1.68 0.52 2.4 2.12 3 c1.2 0.44 2.24 -0.2 2.28 -1.48 c0.08 -1.28 0.04 -2.68 0.12 -7.6 c0 -0.6 -0.24 -1.08 -0.68 -1.44 c-0.48 -0.36 -1 -0.68 -1.52 -0.96 s-0.96 -0.2 -1.4 0.12 c-0.56 0.36 -0.88 0.88 -0.88 1.6 z M65.08 22.44 c-0.28 0.32 -0.12 0.56 0.16 0.8 l1.96 1.56 c0.36 0.24 0.52 0.56 0.52 1 c-0.08 2.48 0.04 4.92 -0.04 7.4 c0 0.4 0.16 0.64 0.56 0.64 s0.56 -0.24 0.56 -0.6 c0 -2.56 0 -5.12 -0.04 -7.68 c0 -0.52 -0.16 -1 -0.56 -1.32 c-0.72 -0.68 -1.52 -1.28 -2.32 -1.88 c-0.28 -0.28 -0.6 -0.2 -0.8 0.08 z M58.04 34.72 c0 0.56 0.16 1.08 0.56 1.52 c0.48 0.52 1.04 0.92 1.6 1.32 c0.28 0.2 0.6 0.16 0.8 -0.12 c0.24 -0.28 0.16 -0.52 -0.12 -0.76 c-0.44 -0.32 -0.84 -0.64 -1.24 -1 c-0.32 -0.24 -0.48 -0.52 -0.48 -0.96 l0.04 -7.28 c0 -0.4 -0.08 -0.8 -0.56 -0.76 c-0.44 0 -0.56 0.28 -0.56 0.68 c0 2.44 0 4.88 -0.04 7.36 z M78.03999999999999 39.8 l-2.56 -2.24 c-0.4 -0.36 -0.52 -0.88 -0.52 -1.44 l0 -14.96 c0 -0.8 -0.32 -1.36 -0.96 -1.8 c-0.44 -0.28 -0.88 -0.6 -1.32 -0.92 c-0.68 -0.48 -0.76 -0.96 -0.32 -1.64 c0.32 -0.48 0.72 -0.8 2.16 -2.08 c0.84 -0.72 1.8 -0.84 2.68 -0.16 c0.96 0.72 1.88 1.52 2.8 2.32 c0.36 0.28 0.48 0.68 0.48 1.12 c0 5.12 0.04 10.16 -0.04 15.32 c0 0.8 0.24 1.44 0.92 1.84 c0.36 0.2 0.72 0.48 1.04 0.76 c0.64 0.48 0.76 1 0.28 1.68 c-0.56 0.88 -1.6 1.8 -2.6 2.52 c-0.72 0.56 -1.52 0.12 -2.04 -0.32 z M76.44 18.24 c0.68 0.48 0.96 1.12 0.96 2 c-0.04 4.8 -0.04 9.64 -0.04 14.48 c0 0.92 0.2 1.76 1.12 2.24 c0.48 0.28 0.92 0.68 1.36 1.04 c0.28 0.2 0.56 0.4 0.84 0 c0.28 -0.36 0.16 -0.68 -0.2 -0.92 l-1.28 -0.88 c-0.52 -0.36 -0.72 -0.84 -0.72 -1.52 l0 -14.88 c0 -0.68 -0.12 -1.32 -0.64 -1.8 c-0.64 -0.6 -1.32 -1.12 -1.96 -1.68 c-0.32 -0.24 -0.64 -0.2 -0.88 0.08 s-0.12 0.56 0.16 0.8 c0.4 0.32 0.84 0.72 1.28 1.04 z M88.44 39.8 l-2.56 -2.24 c-0.4 -0.36 -0.52 -0.88 -0.52 -1.44 l0 -14.96 c0 -0.8 -0.32 -1.36 -0.96 -1.8 c-0.44 -0.28 -0.88 -0.6 -1.32 -0.92 c-0.68 -0.48 -0.76 -0.96 -0.32 -1.64 c0.32 -0.48 0.72 -0.8 2.16 -2.08 c0.84 -0.72 1.8 -0.84 2.68 -0.16 c0.96 0.72 1.88 1.52 2.8 2.32 c0.36 0.28 0.48 0.68 0.48 1.12 c0 5.12 0.04 10.16 -0.04 15.32 c0 0.8 0.24 1.44 0.92 1.84 c0.36 0.2 0.72 0.48 1.04 0.76 c0.64 0.48 0.76 1 0.28 1.68 c-0.56 0.88 -1.6 1.8 -2.6 2.52 c-0.72 0.56 -1.52 0.12 -2.04 -0.32 z M86.84 18.24 c0.68 0.48 0.96 1.12 0.96 2 c-0.04 4.8 -0.04 9.64 -0.04 14.48 c0 0.92 0.2 1.76 1.12 2.24 c0.48 0.28 0.92 0.68 1.36 1.04 c0.28 0.2 0.56 0.4 0.84 0 c0.28 -0.36 0.16 -0.68 -0.2 -0.92 l-1.28 -0.88 c-0.52 -0.36 -0.72 -0.84 -0.72 -1.52 l0 -14.88 c0 -0.68 -0.12 -1.32 -0.64 -1.8 c-0.64 -0.6 -1.32 -1.12 -1.96 -1.68 c-0.32 -0.24 -0.64 -0.2 -0.88 0.08 s-0.12 0.56 0.16 0.8 c0.4 0.32 0.84 0.72 1.28 1.04 z M95.44000000000001 35.8 c0 -2.68 0.04 -5.36 0 -8.08 c-0.04 -0.88 0.32 -1.56 1 -2 c2.52 -1.72 5.08 -3.4 7.64 -5.08 c0.72 -0.48 1.48 -0.4 2.16 0.12 l2.88 2.16 c0.52 0.36 0.76 0.88 0.76 1.52 l0 9.32 c0 0.52 0.2 0.84 0.6 1.08 c0.52 0.24 1 0.56 1.48 0.84 c0.56 0.32 0.68 0.76 0.28 1.28 c-0.76 0.96 -1.56 1.84 -2.48 2.68 c-0.6 0.52 -1.56 0.4 -2.32 -0.16 c-0.92 -0.68 -1.84 -1.36 -2.72 -2.08 c-0.24 -0.2 -0.4 -0.2 -0.64 0 l-2.32 2 c-0.96 0.84 -1.8 0.84 -2.84 0.04 l-2.64 -1.96 c-0.6 -0.4 -0.84 -0.96 -0.84 -1.68 z M101.32000000000001 24.36 c-0.68 0.32 -0.76 1 -0.76 1.64 c0.08 2.52 0.04 5.04 0.04 7.56 c0 0.4 0.08 0.8 0.4 1.12 c0.52 0.6 1.2 1 1.92 1.32 c0.2 0.12 0.44 0.04 0.6 -0.08 c0.72 -0.44 1.32 -1.04 1.32 -2 c0.04 -1.12 0 -2.24 0.04 -6.04 c0.16 -1.52 -0.6 -2.44 -1.72 -3.24 c-0.56 -0.44 -1.2 -0.6 -1.84 -0.28 z M104.56 22.24 c-0.28 0.28 -0.16 0.56 0.12 0.84 c0.44 0.36 0.84 0.76 1.32 1.12 c0.64 0.48 0.88 1.12 0.88 1.88 c0 2.28 -0.08 4.52 -0.08 6.8 c0 2.88 -0.36 2.96 2.28 4.8 c0.24 0.2 0.52 0.4 0.8 0.04 c0.24 -0.36 0.2 -0.68 -0.16 -0.96 l-1.24 -0.92 c-0.32 -0.28 -0.56 -0.6 -0.56 -1.08 c0.04 -1.48 0.04 -2.92 0.04 -8.76 c0 -0.96 -0.32 -1.84 -1.04 -2.48 c-0.48 -0.48 -1 -0.88 -1.52 -1.28 c-0.28 -0.24 -0.6 -0.28 -0.84 0 z M97.72 27.36 l-0.08 7.92 c0 0.4 0.16 0.8 0.4 1.16 c0.48 0.68 1.2 1.12 1.84 1.6 c0.28 0.2 0.6 0.08 0.8 -0.2 s0.08 -0.52 -0.2 -0.72 c-0.32 -0.24 -0.6 -0.56 -0.96 -0.76 c-0.64 -0.4 -0.8 -0.92 -0.8 -1.64 c0.08 -2.16 0.08 -4.36 0.08 -6.52 c0 -0.68 0 -1.36 0.56 -1.88 c0.16 -0.16 0.16 -0.4 0 -0.6 c-0.12 -0.2 -0.24 -0.28 -0.48 -0.28 c-0.16 0 -0.28 0.08 -0.4 0.24 c-0.48 0.44 -0.76 1 -0.76 1.68 z"></path></g></svg>