<svg id="oqudIvQXQ1" viewBox="0 0 369.89473684210526 88.55918183040022" height="88.55918183040022" width="369.89473684210526" style="width: 369.895px; height: 88.5592px; position: absolute; top: 50%; left: 50%; z-index: 0; cursor: pointer; overflow: visible; transform: translate(-50%, -50%) scale(0.694116);"><defs id="SvgjsDefs1410"></defs><g id="SvgjsG1411" featurekey="QMusi1-0" transform="matrix(1.2053296566009521,0,0,1.2053296566009521,-12.758411655857229,-16.304494132843626)" fill="#6a2c70"><path xmlns="http://www.w3.org/2000/svg" d="M87,50.636c0-0.016-0.009-0.03-0.01-0.046c0.001-0.109,0.009-0.217,0.009-0.327c0-20.257-17.139-36.736-38.206-36.736  c-21.067,0-38.207,16.479-38.207,36.736c0,0.084,0.006,0.167,0.006,0.251c0,0.083-0.007,0.165-0.007,0.248  c0,0.026,0.013,0.049,0.016,0.074C10.923,70.828,27.926,87,48.793,87c19.782,0,36.099-14.532,38.016-33.077  C86.935,52.84,87,51.743,87,50.636z M48.793,15.214c20.1,0,36.451,15.723,36.451,35.049c0,1.175-0.062,2.335-0.181,3.48  c-1.762,15.173-16.229,27.456-33.159,27.456c-17.448,0-25.044-8.427-28.186-17.432c5.134,8.276,14.913,14.01,25.852,14.01  c15.494,0,28.098-12.118,28.098-27.016c0-0.003-0.002-0.006-0.002-0.01c0-0.032-0.002-0.064-0.002-0.097  c0-0.006,0.004-0.012,0.004-0.018c0-0.115-0.008-0.228-0.01-0.342c-0.167-15.455-8.629-31.784-31.977-31.784  c-10.508,0-20.108,4.511-26.604,11.491C25.689,21.062,36.541,15.214,48.793,15.214z M75.91,50.762c0,0.003,0.002,0.005,0.002,0.008  C75.907,64.732,64.093,76.09,49.57,76.09c-14.833,0-27.683-11.793-27.731-25.255c0-0.065,0.161-0.134,0.161-0.199  c0-0.001,0-0.002,0-0.004c0-13.965,11.656-25.323,26.178-25.323c14.805,0,27.713,11.747,27.811,25.176  C75.99,50.577,75.91,50.679,75.91,50.762z M12.349,50.532c0.141-16.466,15.345-30.333,33.333-30.333  c16.148,0,23.691,8.021,27.202,15.96c-5.34-7.477-14.55-12.539-24.828-12.539C32.563,23.62,20,35.739,20,50.637  c0,0.002,0,0.003,0,0.005c0,0.038,0,0.078,0,0.116c0,0.001,0,0.002,0,0.004c0,0.017-0.039,0.034-0.039,0.051  c0.04,12.065,4.267,32.074,31.964,32.074c8.542,0,16.473-2.984,22.637-7.849c-6.6,6.345-15.716,10.273-25.764,10.273  C28.793,85.312,12.5,69.733,12.349,50.532z"></path></g><g id="SvgjsG1412" featurekey="UyNsn2-0" transform="matrix(4.104000568389893,0,0,4.104000568389893,112.49206961585921,-17.736154990896747)" fill="#6a2c70"><path d="M1.88 12.02 l-1.9999 0.000019531 l1.32 -2.46 l3.16 0 l0.26 1.16 c0.30666 -0.36 0.68332 -0.65666 1.13 -0.89 s0.97 -0.35 1.57 -0.35 c0.58666 0 1.1333 0.10334 1.64 0.31 s0.94666 0.52332 1.32 0.94998 s0.66668 0.96332 0.88002 1.61 s0.32 1.4167 0.32 2.31 c0 1.7333 -0.48666 3.0766 -1.46 4.03 s-2.3466 1.43 -4.12 1.43 c-0.33334 0 -0.66668 -0.02 -1 -0.06 l0 4.62 l-3.02 0 l0 -12.66 z M4.9 17.4 c0.33334 0.06666 0.67332 0.10002 1.02 0.10002 c0.74666 0 1.34 -0.22 1.78 -0.66 s0.66 -1.14 0.66 -2.1 c0 -0.73334 -0.15334 -1.34 -0.46 -1.82 s-0.77332 -0.72 -1.4 -0.72 c-0.57334 0 -0.98334 0.20334 -1.23 0.61 s-0.37 0.90332 -0.37 1.49 l0 3.1 z M18.18 15.42 c-0.13334 -0.02666 -0.2733 -0.04338 -0.41996 -0.050038 s-0.27332 -0.01 -0.37998 -0.01 c-0.56 0 -1.0133 0.08666 -1.36 0.26 s-0.52 0.47334 -0.52 0.9 c0 0.26666 0.06334 0.47666 0.19 0.63 s0.28332 0.26668 0.46998 0.34002 s0.38332 0.11668 0.58998 0.13002 s0.38332 0.02 0.52998 0.02 c0.26666 0 0.56666 -0.03334 0.9 -0.1 l0 -2.12 z M17.14 13.219999999999999 c0.10666 0 0.24996 0.0033594 0.42996 0.01002 s0.38334 0.01666 0.61 0.03 c-0.01334 -0.52 -0.19668 -0.85666 -0.55002 -1.01 s-0.81 -0.23 -1.37 -0.23 c-0.30666 0 -0.66 0.03666 -1.06 0.11 s-0.83334 0.18334 -1.3 0.33 l-0.32 -1.1 c-0.04 -0.14666 -0.09666 -0.36 -0.17 -0.64 s-0.12334 -0.5 -0.15 -0.66 c0.66666 -0.22666 1.2967 -0.39 1.89 -0.49 s1.13 -0.15 1.61 -0.15 c1.4133 0 2.5066 0.33666 3.28 1.01 s1.16 1.75 1.16 3.23 l0 5.86 c-0.52 0.14666 -1.12 0.29 -1.8 0.43 s-1.4133 0.21 -2.2 0.21 c-0.69334 0 -1.3233 -0.06 -1.89 -0.18 s-1.0533 -0.32 -1.46 -0.6 s-0.72 -0.64666 -0.94 -1.1 s-0.33 -1.0067 -0.33 -1.66 s0.13666 -1.2 0.41 -1.64 s0.62668 -0.79 1.06 -1.05 s0.92 -0.44334 1.46 -0.55 s1.0833 -0.16 1.63 -0.16 z M26.74 9.92 c0.16 -0.10666 0.38332 -0.21 0.66998 -0.31 s0.61 -0.15 0.97 -0.15 c0.30666 0 0.55666 0.01334 0.75 0.04 s0.29 0.03332 0.29 0.01998 l0 2.66 c-0.30666 -0.02666 -0.60666 -0.03332 -0.9 -0.01998 c-0.25334 0.02666 -0.51668 0.07 -0.79002 0.13 s-0.52334 0.17 -0.75 0.33 c-0.26666 0.18666 -0.45666 0.44 -0.57 0.76 s-0.17 0.76 -0.17 1.32 l0 5.32 l-3 0 l0 -7.94 l-1.62 0 l1.28 -2.54 l3.34 0 l0 0.78 c0.06666 -0.05334 0.12666 -0.10668 0.18 -0.16002 c0.05334 -0.04 0.10668 -0.08334 0.16002 -0.13 s0.10668 -0.08332 0.16002 -0.10998 z M35.3 9.44 c0.69334 0 1.34 0.09668 1.94 0.29002 s1.1167 0.50334 1.55 0.93 s0.77334 0.98 1.02 1.66 s0.37 1.5 0.37 2.46 s-0.12334 1.78 -0.37 2.46 s-0.58666 1.2333 -1.02 1.66 s-0.95 0.73666 -1.55 0.93 s-1.2467 0.29 -1.94 0.29 c-0.70666 0 -1.3567 -0.09666 -1.95 -0.29 s-1.1067 -0.50334 -1.54 -0.93 s-0.77334 -0.98 -1.02 -1.66 s-0.37 -1.5 -0.37 -2.46 c0 -0.94666 0.12334 -1.7567 0.37 -2.43 s0.58666 -1.2267 1.02 -1.66 s0.94668 -0.75 1.54 -0.95 s1.2433 -0.3 1.95 -0.3 z M35.3 17.5 c0.6 0 1.07 -0.2 1.41 -0.6 s0.51 -1.1067 0.51 -2.12 s-0.17 -1.7233 -0.51 -2.13 s-0.81 -0.61 -1.41 -0.61 c-0.58666 0 -1.0567 0.21 -1.41 0.63 s-0.53 1.1233 -0.53 2.11 c0 1.0133 0.17334 1.72 0.52 2.12 s0.82 0.6 1.42 0.6 z M41.99999999999999 5.539999999999999 l3.02 0.000019531 l0 10.3 c0 0.34666 0.02 0.62666 0.06 0.84 s0.10334 0.38 0.19 0.5 s0.19666 0.2 0.33 0.24 s0.29334 0.06 0.48 0.06 c0.09334 0 0.2 -0.0033398 0.32 -0.01 s0.32 -0.03666 0.6 -0.09 l0.18 2.5 c-0.34666 0.10666 -0.67 0.17332 -0.97 0.19998 s-0.57 0.04 -0.81 0.04 c-1.0667 0 -1.9 -0.29 -2.5 -0.87 s-0.9 -1.5233 -0.9 -2.83 l0 -10.88 z M48.11999999999999 5.539999999999999 l3.02 0.000019531 l0 10.3 c0 0.34666 0.02 0.62666 0.06 0.84 s0.10334 0.38 0.19 0.5 s0.19666 0.2 0.33 0.24 s0.29334 0.06 0.48 0.06 c0.09334 0 0.2 -0.0033398 0.32 -0.01 s0.32 -0.03666 0.6 -0.09 l0.18 2.5 c-0.34666 0.10666 -0.67 0.17332 -0.97 0.19998 s-0.57 0.04 -0.81 0.04 c-1.0667 0 -1.9 -0.29 -2.5 -0.87 s-0.9 -1.5233 -0.9 -2.83 l0 -10.88 z M59.69999999999999 15.42 c-0.13334 -0.02666 -0.2733 -0.04338 -0.41996 -0.050038 s-0.27332 -0.01 -0.37998 -0.01 c-0.56 0 -1.0133 0.08666 -1.36 0.26 s-0.52 0.47334 -0.52 0.9 c0 0.26666 0.06334 0.47666 0.19 0.63 s0.28332 0.26668 0.46998 0.34002 s0.38332 0.11668 0.58998 0.13002 s0.38332 0.02 0.52998 0.02 c0.26666 0 0.56666 -0.03334 0.9 -0.1 l0 -2.12 z M58.65999999999999 13.219999999999999 c0.10666 0 0.24996 0.0033594 0.42996 0.01002 s0.38334 0.01666 0.61 0.03 c-0.01334 -0.52 -0.19668 -0.85666 -0.55002 -1.01 s-0.81 -0.23 -1.37 -0.23 c-0.30666 0 -0.66 0.03666 -1.06 0.11 s-0.83334 0.18334 -1.3 0.33 l-0.32 -1.1 c-0.04 -0.14666 -0.09666 -0.36 -0.17 -0.64 s-0.12334 -0.5 -0.15 -0.66 c0.66666 -0.22666 1.2967 -0.39 1.89 -0.49 s1.13 -0.15 1.61 -0.15 c1.4133 0 2.5066 0.33666 3.28 1.01 s1.16 1.75 1.16 3.23 l0 5.86 c-0.52 0.14666 -1.12 0.29 -1.8 0.43 s-1.4133 0.21 -2.2 0.21 c-0.69334 0 -1.3233 -0.06 -1.89 -0.18 s-1.0533 -0.32 -1.46 -0.6 s-0.72 -0.64666 -0.94 -1.1 s-0.33 -1.0067 -0.33 -1.66 s0.13666 -1.2 0.41 -1.64 s0.62668 -0.79 1.06 -1.05 s0.92 -0.44334 1.46 -0.55 s1.0833 -0.16 1.63 -0.16 z"></path></g></svg>