<svg id="Tjs6LxjeJu" viewBox="0 0 350 237.05554177980343" height="237.05554177980343" width="350" style="width: 350px; height: 237.056px; position: absolute; top: 50%; left: 50%; z-index: 0; cursor: pointer; overflow: visible; transform: translate(-50%, -50%) scale(0.660605);"><defs id="SvgjsDefs1082"></defs><g id="SvgjsG1083" featurekey="symbolFeature-0" transform="matrix(2.372875452041626,0,0,2.372875452041626,99.06781779176784,-5.930986804736807)" fill="#280b45"><title xmlns="http://www.w3.org/2000/svg">1</title><path xmlns="http://www.w3.org/2000/svg" d="M32,16.5H56.24a1.49861,1.49861,0,0,1,1.3.75,29.56871,29.56871,0,0,1,3.03,7.37,1.57067,1.57067,0,0,1-.26005,1.3,1.5914,1.5914,0,0,1-1.19.58H32A5.50968,5.50968,0,0,0,26.5,32,1.498,1.498,0,0,1,25,33.5H18A1.498,1.498,0,0,1,16.5,32,15.51337,15.51337,0,0,1,32,16.5Z"></path><path xmlns="http://www.w3.org/2000/svg" d="M32,47.5H7.76a1.49874,1.49874,0,0,1-1.3-.75,29.57057,29.57057,0,0,1-3.03-7.37,1.47647,1.47647,0,0,1,.12-1.06,1.51388,1.51388,0,0,1,1.33-.82H32A5.50972,5.50972,0,0,0,37.5,32,1.498,1.498,0,0,1,39,30.5h7A1.498,1.498,0,0,1,47.5,32,15.51337,15.51337,0,0,1,32,47.5Z"></path><path xmlns="http://www.w3.org/2000/svg" d="M4,33.5A1.498,1.498,0,0,1,2.5,32,29.48784,29.48784,0,0,1,51.49,9.87,1.54256,1.54256,0,0,1,52,11.13a1.51761,1.51761,0,0,1-1.5,1.37H32A19.52509,19.52509,0,0,0,12.5,32,1.498,1.498,0,0,1,11,33.5Z"></path><path xmlns="http://www.w3.org/2000/svg" d="M61.5,32c.07664,25.20862-30.16446,38.86111-48.99012,22.12964A1.50835,1.50835,0,0,1,12.31,52.09a1.49265,1.49265,0,0,1,1.19-.59H32A19.52509,19.52509,0,0,0,51.5,32,1.498,1.498,0,0,1,53,30.5h7A1.498,1.498,0,0,1,61.5,32Z"></path></g><g id="SvgjsG1084" featurekey="nameFeature-0" transform="matrix(2.690486431121826,0,0,2.690486431121826,-4.304778132161282,128.575124638626)" fill="#280b45"><path d="M8.08 12 c4.4 0 6.56 2.44 6.56 6.92 l0 3.64 c0 4.48 -2.16 6.92 -6.56 6.92 l-2.08 0 l0 10.52 l-4.4 0 l0 -28 l6.48 0 z M8.08 16 l-2.08 0 l0 9.48 l2.08 0 c1.4 0 2.16 -0.64 2.16 -2.64 l0 -4.2 c0 -2 -0.76 -2.64 -2.16 -2.64 z M30.248 12 l4.48 28 l-4.44 0 l-0.76 -5.08 l-5.4 0 l-0.76 5.08 l-4.04 0 l4.48 -28 l6.44 0 z M26.768 16.96 l-2.08 14.16 l4.24 0 l-2.08 -14.16 l-0.08 0 z M54.776 40 l-4.48 0 c-0.24 -0.72 -0.4 -1.16 -0.4 -3.44 l0 -4.4 c0 -2.6 -0.88 -3.56 -2.88 -3.56 l-1.52 0 l0 11.4 l-4.4 0 l0 -28 l6.64 0 c4.56 0 6.52 2.12 6.52 6.44 l0 2.2 c0 2.88 -0.92 4.72 -2.88 5.64 l0 0.08 c2.2 0.92 2.92 3 2.92 5.92 l0 4.32 c0 1.36 0.04 2.36 0.48 3.4 z M47.616 16 l-2.12 0 l0 8.6 l1.72 0 c1.64 0 2.64 -0.72 2.64 -2.96 l0 -2.76 c0 -2 -0.68 -2.88 -2.24 -2.88 z M65.544 18.44 l0 15.12 c0 2 0.88 2.76 2.28 2.76 s2.28 -0.76 2.28 -2.76 l0 -15.12 c0 -2 -0.88 -2.76 -2.28 -2.76 s-2.28 0.76 -2.28 2.76 z M61.144000000000005 33.28 l0 -14.56 c0 -4.48 2.36 -7.04 6.68 -7.04 s6.68 2.56 6.68 7.04 l0 14.56 c0 4.48 -2.36 7.04 -6.68 7.04 s-6.68 -2.56 -6.68 -7.04 z M81.672 40 l0 -28 l4.4 0 l0 24 l7.24 0 l0 4 l-11.64 0 z M99.56 40 l0 -28 l4.4 0 l0 24 l7.24 0 l0 4 l-11.64 0 z M127.20800000000001 12 l4.48 28 l-4.44 0 l-0.76 -5.08 l-5.4 0 l-0.76 5.08 l-4.04 0 l4.48 -28 l6.44 0 z M123.72800000000001 16.96 l-2.08 14.16 l4.24 0 l-2.08 -14.16 l-0.08 0 z"></path></g></svg>