<svg id="bUZ2MCFAAM" viewBox="0 0 398.22222222222223 108.9" height="108.9" width="398.22222222222223" style="width: 398.222px; height: 108.9px; position: absolute; top: 50%; left: 50%; z-index: 0; cursor: pointer; overflow: visible; transform: translate(-50%, -50%) scale(0.595145);"><defs id="SvgjsDefs1979"></defs><g id="SvgjsG1980" featurekey="symbolContainer" transform="matrix(0.8999999761581421,0,0,0.8999999761581421,0,0)" fill="#9896f1"><rect xmlns="http://www.w3.org/2000/svg" width="118" height="121" rx="10" ry="10"></rect></g><g id="SvgjsG1981" featurekey="monogramFeature-0" transform="matrix(1.9349287748336792,0,0,1.9349287748336792,8.195360218013544,-20.737996963872654)" fill="#111111"><path d="M42.114 29.863 c0.76776 1.7332 1.1562 3.6032 1.0711 5.4502 c-0.070548 1.8464 -0.61272 3.6425 -1.4733 5.2441 c-0.86436 1.6029 -2.0459 3.0209 -3.3698 4.2087 c-0.58283 0.5059 -1.1777 0.97494 -1.7968 1.3913 c-0.61458 0.40043 -1.2038 0.78054 -1.8336 1.1123 c-4.3365 2.3701 -9.2064 3.2707 -13.847 2.7539 l-1.5476 8.949 c-0.23514 1.2286 -5.3496 1.1986 -5.7119 -0.048985 l-4.2336 -27.3 c-2.5931 0.7659 -4.6346 1.1383 -4.7102 0.6057 l-0.081972 -0.32479 l-1.5794 -6.267 l4.048 -2.9815 c2.9198 -2.1508 6.1956 -3.511 9.4596 -4.1821 c3.2719 -0.67878 6.5574 -0.6813 9.7098 -0.08133 c3.1492 0.59361 6.1866 1.777 8.8872 3.5598 c0.66162 0.47162 1.3207 0.94194 1.9417 1.4612 l0.9057 0.81672 c0.30697 0.27392 0.58025 0.53959 0.88722 0.86436 c1.3684 1.4237 2.5086 3.0305 3.2745 4.7681 z M32.395 36.947 c0.23514 -0.94002 -0.086544 -1.9011 -0.70812 -2.4604 c-0.29807 -0.28664 -0.63492 -0.49195 -0.9597 -0.63624 c-0.25166 -0.16652 -0.61584 -0.32608 -0.89736 -0.49892 c-0.31459 -0.15381 -0.6495 -0.27838 -0.96348 -0.42011 c-1.3315 -0.47666 -2.7889 -0.68256 -4.2234 -0.6171 c-0.24404 0.0089064 -0.48557 0.038789 -0.72708 0.065508 l-1.9811 11.456 c3.0666 -0.46207 5.9407 -1.7644 8.1132 -3.6463 c0.34763 -0.28283 0.6711 -0.61458 0.97362 -0.91392 c0.28858 -0.29807 0.54088 -0.6171 0.7722 -0.92916 c0.29174 -0.46013 0.49447 -0.9273 0.60126 -1.3989 z"></path></g>
<g id="SvgjsG1982" featurekey="nameFeature-0" transform="matrix(2.164747714996338,0,0,2.164747714996338,122.53727182814984,-9.977188346063848)" fill="#9896f1"><path d="M11.867 19.412 c5.6612 0 10.266 4.6056 10.266 10.267 s-4.6056 10.267 -10.267 10.267 c-2.1837 0 -4.2088 -0.68764 -5.8744 -1.8543 l0 7.1249 c0 1.2128 -0.98328 2.196 -2.196 2.196 s-2.196 -0.98328 -2.196 -2.196 l0 -23.608 c0 -1.2128 0.98328 -2.196 2.196 -2.196 c1.1027 0 2.013 0.81364 2.1697 1.873 c1.6709 -1.1782 3.7059 -1.873 5.9012 -1.873 z M11.867 35.5528 c3.2392 0 5.8744 -2.6353 5.8744 -5.8744 s-2.6353 -5.8744 -5.8744 -5.8744 s-5.8744 2.6353 -5.8744 5.8744 s2.6353 5.8744 5.8744 5.8744 z M42.446 19.412 c1.2128 0 2.196 0.98328 2.196 2.196 l0 16.196 c0 1.2128 -0.98328 2.196 -2.196 2.196 c-1.1071 0 -2.0201 -0.81968 -2.1716 -1.885 c-1.677 1.1856 -3.721 1.885 -5.9264 1.885 c-5.6764 0 -10.294 -4.6176 -10.294 -10.294 s4.6176 -10.294 10.294 -10.294 c2.2054 0 4.2492 0.69944 5.9264 1.885 c0.15152 -1.0654 1.0645 -1.885 2.1716 -1.885 z M34.348 35.608 c3.2543 0 5.902 -2.6476 5.902 -5.902 s-2.6476 -5.902 -5.902 -5.902 s-5.902 2.6476 -5.902 5.902 s2.6476 5.902 5.902 5.902 z M56.882 19.412 c1.2128 0 2.196 0.98328 2.196 2.196 s-0.98328 2.196 -2.196 2.196 c-3.2543 0 -5.902 2.6476 -5.902 5.902 l0 8.098 c0 1.2128 -0.98328 2.196 -2.196 2.196 s-2.196 -0.98328 -2.196 -2.196 l0 -16.196 c0 -1.2128 0.98328 -2.196 2.196 -2.196 c1.1071 0 2.0201 0.81996 2.1716 1.885 c1.677 -1.1856 3.721 -1.885 5.9264 -1.885 z M69.296 19.412 c5.6764 0 10.294 4.6176 10.294 10.294 s-4.6176 10.294 -10.294 10.294 s-10.294 -4.6176 -10.294 -10.294 s4.6176 -10.294 10.294 -10.294 z M69.296 35.608 c3.2543 0 5.902 -2.6476 5.902 -5.902 s-2.6476 -5.902 -5.902 -5.902 s-5.902 2.6476 -5.902 5.902 s2.6476 5.902 5.902 5.902 z M91.995 35.608 c1.2128 0 2.1961 0.98332 2.1961 2.1961 s-0.98328 2.196 -2.196 2.196 c-5.7668 0 -10.459 -4.692 -10.459 -10.459 l0 -15.345 c0 -1.2128 0.98328 -2.196 2.196 -2.196 s2.196 0.98328 2.196 2.196 l0 15.345 c0 3.3452 2.7215 6.0668 6.0668 6.0668 z M104.60900000000001 35.608 c1.2128 0 2.1961 0.98332 2.1961 2.1961 s-0.98328 2.196 -2.196 2.196 c-5.7668 0 -10.459 -4.692 -10.459 -10.459 l0 -15.345 c0 -1.2128 0.98328 -2.196 2.196 -2.196 s2.196 0.98328 2.196 2.196 l0 15.345 c0 3.3452 2.7215 6.0668 6.0668 6.0668 z M125.15600000000002 19.412 c1.2128 0 2.196 0.98328 2.196 2.196 l0 16.196 c0 1.2128 -0.98328 2.196 -2.196 2.196 c-1.1071 0 -2.0201 -0.81968 -2.1716 -1.885 c-1.677 1.1856 -3.721 1.885 -5.9264 1.885 c-5.6764 0 -10.294 -4.6176 -10.294 -10.294 s4.6176 -10.294 10.294 -10.294 c2.2054 0 4.2492 0.69944 5.9264 1.885 c0.15152 -1.0654 1.0645 -1.885 2.1716 -1.885 z M117.05800000000002 35.608 c3.2543 0 5.902 -2.6476 5.902 -5.902 s-2.6476 -5.902 -5.902 -5.902 s-5.902 2.6476 -5.902 5.902 s2.6476 5.902 5.902 5.902 z"></path></g></svg>